<svg id="Capa_1" enable-background="new 0 0 511.988 511.988" height="512" viewBox="0 0 511.988 511.988" width="512" xmlns="http://www.w3.org/2000/svg"><g><path d="m363.464 253.413-113.09 233.22c-18.14 37.42-73.04 32.27-83.92-7.86l-28.42-104.82-104.82-28.42c-40.18-10.89-45.23-65.8-7.86-83.92l233.22-113.09c5.75-2.79 12.63-1.63 17.15 2.89 5.34 5.34 23.89 23.88 42.43 42.43l42.42 42.42c4.52 4.52 5.68 11.4 2.89 17.15z" fill="#ff641a"/><path d="m363.464 253.413-113.09 233.22c-18.14 37.42-73.04 32.27-83.92-7.86l-28.42-104.82 180.12-180.11 42.42 42.42c4.52 4.52 5.68 11.4 2.89 17.15z" fill="#dd3400"/><path d="m448.474 106.033-148.02 148.02c-6.48 6.48-17.19 5.67-22.64-1.64l-9.65-8.59-10.52-9.35c-6.44-5.74-6.74-15.71-.64-21.82l148.88-148.88 21.25 21.08z" fill="#575f64"/><path d="m448.474 106.033-148.02 148.02c-6.48 6.48-17.19 5.67-22.64-1.64l-9.65-8.59 158.97-158.97z" fill="#32393f"/><path d="m156.866 128.295c-3.705 7.41-.701 16.419 6.708 20.125 7.424 3.712 16.427.687 20.125-6.708l30-60c5.004-10.009-2.34-21.756-13.484-21.696-.078-.001-.153-.012-.23-.012h-35.431l19.146-38.292c3.705-7.41.701-16.419-6.708-20.125-7.409-3.705-16.42-.702-20.125 6.708l-28.839 57.678c-7.424 9.815-.452 24.03 11.957 24.03h.227c.02 0 .04.003.06.003.033 0 .066-.003.099-.004h35.642z" fill="#ffdf8e"/><path d="m490.276 328.288-38.292 19.146v-35.729c0-11.129-11.739-18.402-21.708-13.417l-60 30c-7.41 3.705-10.413 12.715-6.708 20.125s12.715 10.413 20.125 6.708l38.292-19.146v35.729c0 11.129 11.739 18.402 21.708 13.417l60-30c7.41-3.705 10.413-12.715 6.708-20.125-3.706-7.409-12.717-10.414-20.125-6.708z" fill="#ffb64c"/><g><path d="m266.934 308.693c-5.86 5.85-15.36 5.85-21.21 0l-21.21-21.21-21.22-21.22c-5.85-5.85-5.85-15.35 0-21.21 5.86-5.86 15.36-5.86 21.22 0l21.21 21.21 21.21 21.21c5.86 5.86 5.86 15.36 0 21.22z" fill="#ececf1"/></g><path d="m266.934 308.693c-5.86 5.85-15.36 5.85-21.21 0l-21.21-21.21 21.21-21.22 21.21 21.21c5.86 5.86 5.86 15.36 0 21.22z" fill="#d3d3d8"/><g><path d="m224.514 351.113c-5.86 5.86-15.36 5.86-21.22 0l-42.42-42.42c-5.86-5.86-5.86-15.36 0-21.22 5.85-5.85 15.35-5.85 21.21 0l21.22 21.22 21.21 21.21c5.85 5.86 5.85 15.35 0 21.21z" fill="#ececf1"/></g><path d="m224.514 351.113c-5.86 5.86-15.36 5.86-21.22 0l-21.21-21.21 21.22-21.21 21.21 21.21c5.85 5.86 5.85 15.35 0 21.21z" fill="#d3d3d8"/><g><path d="m413.835 59.135-33.524-33.525c-5.857-5.858-5.857-15.355 0-21.213 5.858-5.857 15.355-5.857 21.213 0l33.524 33.525c14.02 14.019-7.166 35.257-21.213 21.213z" fill="#ececf1"/></g><g><path d="m486.377 131.676-30.658-30.657c-2.588-2.588 18.624-23.802 21.213-21.214l30.658 30.657c5.858 5.858 5.858 15.355 0 21.213-5.856 5.858-15.354 5.86-21.213.001z" fill="#d3d3d8"/></g><path d="m506.944 68.183c-35.36 32.27-61.07 41.54-62.8 42.14l-21.24-21.24-21.24-21.24c.6-1.73 9.87-27.44 42.14-62.8 5.77-6.32 15.65-6.57 21.71-.51l20.97 20.97 20.97 20.97c6.06 6.06 5.81 15.94-.51 21.71z" fill="#32393f"/><path d="m506.944 68.183c-35.36 32.27-61.07 41.54-62.8 42.14l-21.24-21.24 63.58-63.58 20.97 20.97c6.06 6.06 5.81 15.94-.51 21.71z" fill="#292929"/></g></svg>