<svg id="Capa_1" enable-background="new 0 0 512 512" height="512" viewBox="0 0 512 512" width="512" xmlns="http://www.w3.org/2000/svg"><g id="XMLID_1471_"><path id="XMLID_155_" d="m0 135.983h512v330.017h-512z" fill="#e4f3ff"/><path id="XMLID_1455_" d="m256 135.983h256v330.017h-256z" fill="#c3dafd"/><path id="XMLID_1454_" d="m0 46h512v119.999h-512z" fill="#84d9f3"/><path id="XMLID_181_" d="m256 46h256v119.999h-256z" fill="#77b0fb"/><g id="XMLID_121_"><path id="XMLID_1448_" d="m60 90.983h30v30h-30z" fill="#fff"/></g><g id="XMLID_1172_"><path id="XMLID_119_" d="m120 90.983h30v30h-30z" fill="#fff"/></g><g id="XMLID_1170_"><path id="XMLID_1171_" d="m180 90.983h30v30h-30z" fill="#fff"/></g><g id="XMLID_892_"><path id="XMLID_985_" d="m187.206 300.454h137.587v30.001h-137.587z" fill="#dc4c69" transform="matrix(.514 -.858 .858 .514 -146.194 372.795)"/></g><g id="XMLID_988_"><g id="XMLID_1100_"><path id="XMLID_1155_" d="m147.858 392.764-74.247-74.245 74.247-74.248 21.213 21.213-53.034 53.035 53.034 53.032z" fill="#dc4c69"/></g><g id="XMLID_997_"><path id="XMLID_114_" d="m364.071 392.764-21.213-21.213 53.035-53.032-53.035-53.035 21.213-21.213 74.247 74.248z" fill="#c21d75"/></g></g><path id="XMLID_1478_" d="m278.511 248.74-22.511 37.544v58.342l48.241-80.458z" fill="#c21d75"/></g></svg>